<?xml version="1.0" encoding="utf-8"?>
<!-- Generator: Adobe Illustrator 22.0.1, SVG Export Plug-In . SVG Version: 6.00 Build 0)  -->
<svg version="1.1" id="Layer_1" xmlns="http://www.w3.org/2000/svg" xmlns:xlink="http://www.w3.org/1999/xlink" x="0px" y="0px"
	 viewBox="0 0 53 53" style="enable-background:new 0 0 53 53;" xml:space="preserve">
<style type="text/css">
	.st0{fill:#58595B;}
</style>
<g>
	<path class="st0" d="M51.37904,34.082c-0.03691-7.53986,0.03654-2.07339-0.29675-26.03491
		c0.00287-0.39996-0.03253-0.92847-0.16229-1.36792c-0.46875-1.8465-2.21204-3.24976-4.09033-3.29443
		C40.16102,3.52432,33.58992,3.6398,26.96522,3.8594c6.59912,0.23016,13.25293,0.31158,19.80719,0.49829
		c1.45587,0.09094,2.75342,1.20502,3.06146,2.59998c0.08813,0.3595,0.10419,0.66388,0.09296,1.08942
		c-0.01112,0.8062-0.05325,3.86255-0.05127,3.7193c-0.17486,12.61427-0.22428,15.44462-0.23193,19.48511
		c-3.71301-0.35846-7.42603-0.56183-11.13904-0.69836c-4-0.15955-8-0.20209-12-0.22205c-4,0.01752-8,0.06006-12,0.21906
		c-3.71094,0.13593-7.42181,0.34015-11.13275,0.70032c-0.04986-7.90642,0.04103-0.46419-0.27002-22.88489L3.09571,7.7532
		c0.00403-0.17615,0.01019-0.35229,0.04132-0.52588c0.05707-0.34644,0.15771-0.6889,0.32135-1.00366
		c0.32434-0.62823,0.84558-1.16534,1.48676-1.48505c0.31689-0.16498,0.6615-0.28003,1.01746-0.33008
		c0.33588-0.05676,0.7442-0.04614,1.1665-0.0589C13.74116,4.1835,20.35316,4.08615,26.96522,3.8594
		C20.35316,3.63266,13.74116,3.53531,7.1291,3.36923C6.36195,3.32437,5.29878,3.353,4.47932,3.79001
		C3.62794,4.18722,2.91896,4.87009,2.46339,5.69717c-0.22919,0.414-0.38086,0.8692-0.46973,1.33429
		c-0.04718,0.23328-0.06458,0.4696-0.07513,0.70685c-0.1606,11.38495,0.17901-13.0809-0.18317,13.02484
		c-0.10691,6.70213-0.0862,8.93818-0.10675,12.39752l-0.00574,1.23981c-0.01117,0.39252,0.01849,0.98267,0.14978,1.4491
		c0.47076,1.99054,2.32587,3.54034,4.38202,3.63531l14.73492,0.07562c-0.40088,0.85919-0.86584,1.67072-1.41449,2.4032
		c-0.77357,0.99931-1.31201,1.51945-2.24054,2.10229l-0.93903,0.0177c-0.83228,0.01984-1.65936,0.25665-2.36639,0.68738
		c-1.43896,0.85938-2.29034,2.49902-2.2417,4.11755l0.00116,0.0387c0.01038,0.39337,0.33765,0.70386,0.73102,0.69348
		c1.14362-0.03009,2.28723-0.07513,3.43085-0.12689c0.94969-0.04878,5.85029-0.22844,10.29236-0.60516
		c-4.46197-0.37841-9.23601-0.55096-10.29236-0.60522c-0.86273-0.03906-1.72546-0.06787-2.5882-0.0957
		c0.2265-0.83014,0.79083-1.55914,1.52472-1.94507c0.46552-0.26001,0.99652-0.38745,1.52338-0.38025l2.03253,0.03693
		c3.22362,0.06709,6.48324,0.04603,8.16168,0.0722c3.9859-0.03052,4.64371-0.03204,8.15784-0.05615l2.0332-0.0365
		c0.52258,0.00146,1.052,0.11328,1.5116,0.37964c0.7243,0.39258,1.26685,1.09595,1.49866,1.90393
		c-4.521,0.1488-9.04206,0.35358-13.56305,0.7262c4.81555,0.39685,9.63111,0.60614,14.44666,0.75708l0.00201,0.00006
		c0.40472,0.0116,0.74231-0.30719,0.75391-0.71191l0.00128-0.04535c0.04645-1.62286-0.81592-3.28552-2.26245-4.12659
		c-0.70551-0.44122-1.54266-0.66565-2.37524-0.69354l-0.95526-0.01843c-0.92304-0.58449-1.4535-1.10037-2.21765-2.08759
		c-0.54938-0.73224-1.01471-1.54388-1.4162-2.40326c4.55194-0.02075,10.34124-0.04714,14.38007-0.06555
		c0.22205-0.01068,0.49945-0.00793,0.74304-0.05444c0.50385-0.06677,0.99622-0.22296,1.44934-0.45074
		c0.91455-0.44531,1.6651-1.19281,2.13885-2.0871c0.23834-0.44757,0.39337-0.93707,0.4801-1.43463
		c0.04608-0.24963,0.06104-0.50159,0.06799-0.75391L51.37904,34.082z M32.76063,42.4357
		c0.26929,0.56122,0.62042,1.08667,1.01563,1.58752l-6.60828-0.0437c-0.62227-0.0055-0.52044-0.00938-1.1582-0.00159
		c-2.263,0.01782-4.52612,0.02142-6.78912,0.05719c0.39978-0.50433,0.75421-1.03448,1.02576-1.60071
		c0.4527-0.92029,0.76721-1.88934,0.93976-2.87238l4.85779,0.0249l5.77795-0.02637
		C31.99378,40.54446,32.30824,41.51431,32.76063,42.4357z M49.63014,34.082l-0.00531,0.60876
		c-0.00763,0.16101-0.0163,0.32153-0.04852,0.47882c-0.0592,0.3139-0.15656,0.62213-0.31097,0.90326
		c-0.30615,0.5611-0.78583,1.03351-1.36383,1.30518c-0.28546,0.14105-0.59314,0.23645-0.90936,0.27325
		c-0.16315,0.03125-0.30261,0.02148-0.49219,0.03131c-6.74098-0.03075-16.94343-0.0773-20.456-0.09332L6.26155,37.66776
		c-1.27808-0.04065-2.46375-1.00818-2.76978-2.25909c-0.08661-0.33252-0.1084-0.5752-0.10553-1.00818
		c-0.00147-0.32177-0.01413-3.0905-0.01367-2.98981c3.71069,0.36017,7.42133,0.56427,11.13202,0.7002c4,0.159,8,0.2016,12,0.21906
		c4-0.01996,8-0.0625,12-0.22205c3.71271-0.13654,7.42535-0.33984,11.13806-0.69824
		c-0.00012,0.06427-0.00116,0.1286-0.00122,0.19287L49.63014,34.082z"/>
	<path class="st0" d="M22.73255,34.17575c-0.21216-0.14673-0.42426-0.21497-0.63641-0.21613
		c-0.2121-0.00159-0.42419,0.06689-0.63635,0.21338c-0.2121,0.15839-0.42419,0.36737-0.63635,0.78632
		c0.21216,0.41895,0.42426,0.62793,0.63635,0.78632c0.21216,0.14648,0.42426,0.21497,0.63635,0.21338
		c0.21216-0.00116,0.42426-0.0694,0.63641-0.21613c0.2121-0.15948,0.42419-0.367,0.63635-0.78357
		C23.15675,34.54276,22.94465,34.33524,22.73255,34.17575z"/>
	<path class="st0" d="M27.14094,34.17575c-0.2121-0.14673-0.42426-0.21497-0.63635-0.21613
		c-0.21216-0.00159-0.42426,0.06689-0.63635,0.21338c-0.21216,0.15839-0.42426,0.36737-0.63635,0.78632
		c0.2121,0.41895,0.42419,0.62793,0.63635,0.78632c0.2121,0.14648,0.42419,0.21497,0.63635,0.21338
		c0.2121-0.00116,0.42426-0.0694,0.63635-0.21613c0.2121-0.15948,0.42426-0.367,0.63635-0.78357
		C27.5652,34.54276,27.35304,34.33524,27.14094,34.17575z"/>
	<path class="st0" d="M31.54933,34.17575c-0.2121-0.14673-0.42426-0.21497-0.63635-0.21613
		c-0.2121-0.00159-0.42426,0.06689-0.63635,0.21338c-0.2121,0.15839-0.42426,0.36737-0.63635,0.78632
		c0.2121,0.41895,0.42426,0.62793,0.63635,0.78632c0.43077,0.29751,0.87435,0.27283,1.27271-0.00275
		c0.21216-0.15948,0.42426-0.367,0.63635-0.78357C31.97358,34.54276,31.76148,34.33524,31.54933,34.17575z"/>
	<path class="st0" d="M8.33912,15.94369c2.82592-0.93163,6.11926-4.24546,7.05121-7.05121
		C12.58804,9.82335,9.27209,13.1137,8.33912,15.94369z"/>
	<path class="st0" d="M10.79811,9.66409c0.16168-0.38727,0.28949-0.80853,0.26947-1.37762
		c-0.56909-0.02002-0.99036,0.10779-1.37762,0.26947c-0.73184,0.33043-1.31116,0.8977-1.64899,1.64514
		c-0.16254,0.38654-0.28931,0.80878-0.26758,1.37958c0.5708,0.02173,0.99304-0.10504,1.37958-0.26758
		C9.89963,10.9756,10.46734,10.39667,10.79811,9.66409z"/>
	<path class="st0" d="M14.64491,17.51694c0,0.15704,0.05304,0.28955,0.15704,0.39459
		c0.16315,0.16418,0.41193,0.20856,0.64136,0.09125c0.56494-0.25031,1.16754-0.37726,1.7926-0.37726
		c0.56287,0,0.97076,0.11066,1.21448,0.32837c0.24268,0.21667,0.36096,0.5047,0.36096,0.87994
		c0,0.23303-0.07648,0.44769-0.23352,0.6557c-0.16315,0.21869-0.37115,0.42419-0.62097,0.61078
		c-0.25287,0.18964-0.60266,0.42725-1.0401,0.70715c-0.51288,0.33295-0.93097,0.62354-1.24402,0.86469
		c-0.32324,0.24829-0.60162,0.53992-0.82593,0.86572c-0.23456,0.33649-0.35284,0.71021-0.35284,1.11096
		c0,0.2019,0.06732,0.36963,0.20093,0.4986c0.13354,0.12848,0.30182,0.19324,0.50165,0.19324h4.16644
		c0.16418,0,0.30493-0.05554,0.4201-0.1662c0.11627-0.11218,0.17542-0.25287,0.17542-0.41754
		c0-0.16418-0.05811-0.30591-0.17334-0.42218l-0.00104-0.00049c-0.11523-0.1142-0.25696-0.17236-0.42114-0.17236h-3.52911
		c0.09583-0.13507,0.22534-0.26868,0.38849-0.39917c0.25494-0.20447,0.63525-0.4762,1.12878-0.80713
		c0.55371-0.35992,1.0105-0.68213,1.36029-0.95746c0.35486-0.28192,0.66382-0.61285,0.91669-0.9845
		c0.26208-0.38446,0.39459-0.80658,0.39459-1.25574c0-0.45477-0.11829-0.8642-0.35077-1.21649
		c-0.23346-0.34979-0.55164-0.62457-0.94727-0.81677c-0.39563-0.19171-0.8382-0.28857-1.31537-0.28857
		c-0.88,0-1.70599,0.18964-2.4585,0.56641C14.75099,17.11111,14.64491,17.28854,14.64491,17.51694z"/>
	<path class="st0" d="M21.59815,22.44046h3.16205v1.33783c0,0.17133,0.06018,0.31866,0.17847,0.43799
		c0.11926,0.11829,0.26715,0.17847,0.43848,0.17847c0.17029,0,0.31812-0.05969,0.44153-0.17743
		c0.12335-0.11884,0.18555-0.26617,0.18555-0.43903v-1.33783h0.68933c0.15704,0,0.29364-0.05402,0.40277-0.16003
		c0.1142-0.10809,0.17133-0.24323,0.17133-0.40228c0-0.15753-0.05713-0.2937-0.16827-0.40485
		c-0.11011-0.11163-0.24677-0.16821-0.40582-0.16821h-0.68933v-4.05835c0-0.21417-0.07037-0.39569-0.21002-0.53839
		c-0.13971-0.14484-0.32428-0.21826-0.54761-0.21826h-0.21619c-0.26905,0-0.51056,0.13099-0.6424,0.30896l-3.38843,4.32806
		c-0.10498,0.13104-0.15802,0.28912-0.15802,0.47058v0.09692c0,0.2085,0.07544,0.38745,0.22333,0.53125
		C21.21272,22.36807,21.39118,22.44046,21.59815,22.44046z M24.7602,18.11398v3.1911h-2.47479L24.7602,18.11398z"/>
	<path class="st0" d="M28.44227,25.36649c0.1377,0,0.25598-0.03876,0.35083-0.11523c0.0907-0.07239,0.15601-0.16467,0.19373-0.27533
		l2.86023-8.36652c0.02649-0.07648,0.03973-0.14532,0.03973-0.20447c0-0.15698-0.05402-0.2926-0.1601-0.40326
		c-0.10809-0.11267-0.24677-0.17029-0.41296-0.17029c-0.13763,0-0.25592,0.03876-0.35181,0.11523
		c-0.09174,0.07288-0.15698,0.1662-0.19269,0.27527l-2.86023,8.36658c-0.02649,0.07648-0.03979,0.14526-0.03979,0.20441
		c0,0.15704,0.05408,0.29266,0.1601,0.40332C28.1374,25.30936,28.27607,25.36649,28.44227,25.36649z"/>
	<path class="st0" d="M33.3766,17.74429h3.70551l-2.87347,5.71692c-0.052,0.10553-0.07849,0.2121-0.07849,0.31708
		c0,0.17236,0.06012,0.3197,0.17841,0.43695c0.11829,0.11932,0.26514,0.1795,0.43848,0.1795
		c0.11627,0,0.22839-0.03162,0.33447-0.09332c0.10706-0.06171,0.18658-0.14172,0.2478-0.25037l3.06519-6.27209l0.00201-0.00354
		c0.07953-0.17542,0.11932-0.35333,0.11932-0.52869c0-0.20294-0.07245-0.37274-0.21313-0.50531
		c-0.13971-0.13098-0.3161-0.19727-0.52209-0.19727H33.3766c-0.16724,0-0.31,0.06067-0.42322,0.17993
		c-0.1142,0.11829-0.1723,0.26105-0.1723,0.42523c0,0.16571,0.05914,0.30792,0.17334,0.42065
		C33.06758,17.6857,33.20936,17.74429,33.3766,17.74429z"/>
</g>
</svg>
