<?xml version="1.0" encoding="utf-8"?>
<!-- Generator: Adobe Illustrator 22.0.1, SVG Export Plug-In . SVG Version: 6.00 Build 0)  -->
<svg version="1.1" id="Layer_1" xmlns="http://www.w3.org/2000/svg" xmlns:xlink="http://www.w3.org/1999/xlink" x="0px" y="0px"
	 viewBox="0 0 53 53" style="enable-background:new 0 0 53 53;" xml:space="preserve">
<style type="text/css">
	.st0{fill:#58595B;}
</style>
<g>
	<path class="st0" d="M21.74042,10.79964c2.40259-0.01746,4.80518-0.06006,7.20776-0.21906
		c2.40259-0.14648,4.80517-0.36407,7.2077-0.78033c-2.40253-0.41632-4.80511-0.63385-7.2077-0.7804
		c-2.40259-0.159-4.80518-0.20154-7.20776-0.21906c-2.40259,0.01996-4.80511,0.0625-7.2077,0.22205
		c-2.40259,0.14709-4.80518,0.36359-7.20776,0.7774c2.40259,0.41376,4.80518,0.63025,7.20776,0.77734
		C16.93531,10.73714,19.33784,10.77968,21.74042,10.79964z"/>
	<path class="st0" d="M21.74042,17.82997c2.40259-0.01746,4.80518-0.06006,7.20776-0.21906
		c2.40259-0.14648,4.80517-0.36407,7.2077-0.78033c-2.40253-0.41632-4.80511-0.63385-7.2077-0.7804
		c-2.40259-0.159-4.80518-0.20154-7.20776-0.21905c-2.40259,0.01996-4.80511,0.0625-7.2077,0.22204
		c-2.40259,0.14709-4.80518,0.36359-7.20776,0.7774c2.40259,0.41376,4.80518,0.63025,7.20776,0.77734
		C16.93531,17.76747,19.33784,17.81001,21.74042,17.82997z"/>
	<path class="st0" d="M28.94819,30.11085c-2.40259-0.159-4.80518-0.2016-7.20776-0.21906
		c-2.40259,0.01996-4.80511,0.0625-7.2077,0.22205c-2.40259,0.14709-4.80518,0.36359-7.20776,0.77734
		c2.40259,0.41382,4.80518,0.63031,7.20776,0.7774c2.40259,0.15955,4.80511,0.20209,7.2077,0.22205
		c2.40259-0.01752,4.80518-0.06006,7.20776-0.21906c2.40259-0.14655,4.80517-0.36407,7.2077-0.7804
		C33.75336,30.47493,31.35077,30.2574,28.94819,30.11085z"/>
	<path class="st0" d="M7.32496,44.0743c3.82116,1.32523,10.57404,1.33987,14.41547,0
		C17.89717,42.73398,11.14469,42.74975,7.32496,44.0743z"/>
	<path class="st0" d="M50.96521,43.06227c-0.35278-0.56622-0.90503-1.00964-1.54761-1.22919
		c-0.31073-0.11029-0.6839-0.15887-0.97522-0.16327l-0.71613-0.0177c-0.10066-0.00248-1.53346-0.03782-1.4328-0.03534
		c-0.8465-1.94696-1.50476-3.9848-1.98743-6.08282c-0.51648-2.21692-0.82861-4.49713-1.06683-6.8172
		c0.81519-0.24225,1.59497-0.65942,2.26056-1.23285c1.29602-1.1203,2.14191-2.82788,2.20074-4.61951
		c0.09998-1.7915-0.62537-3.61963-1.88464-4.93927c-1.26074-1.31042-3.07709-2.07666-4.90674-2.09228
		c0.09045-2.28766,0.17365-4.57526,0.23138-6.86285c0.00702-0.66931,0.06384-1.2782,0.02997-1.99713
		c-0.16711-2.22276-1.7984-4.05406-3.88623-4.56677c-0.3515-0.08752-0.71234-0.13159-1.07489-0.1463l-0.98773-0.02277
		c-0.15657-0.00324-5.99965-0.12404-5.89544-0.12189l-7.86053-0.12494l-7.8606-0.09583
		c-0.25188-0.00227-6.22498-0.056-5.89545-0.05304C7.40839,1.83687,7.00397,1.83528,6.61146,1.88154
		C6.22199,1.92921,5.83515,2.01283,5.46351,2.14216C3.9657,2.64229,2.71851,3.80818,2.09473,5.26088
		C1.77979,5.98067,1.63172,6.79372,1.63416,7.55452c-0.00029,0.10032-0.02999,10.47291-0.02814,9.82574l0.05524,15.72119
		c0.01111,1.20561-0.04024-4.36738,0.10864,11.79083c-0.0058,0.59863,0.02606,1.47858,0.27435,2.18243
		c0.23505,0.73181,0.62866,1.40753,1.13696,1.97498c1.01141,1.14148,2.51416,1.82471,4.02545,1.828l3.94568-0.06152l7.8606-0.16498
		c4.56488-0.14362,9.12976-0.24841,13.6947-0.4187c0.01367,0.01611,0.02216,0.03607,0.03625,0.05182
		c0.4007,0.45325,1.00763,0.69965,1.58783,0.69843c0.07275,0.01257,0.14392,0.03076,0.21851,0.03613l2.23413,0.08301l4.34442,0.0589
		c1.44812-0.02277,2.89624-0.01849,4.34436-0.06342l1.08606-0.03705l0.58563-0.02374
		c0.83665-0.05619,1.5902-0.52029,1.99634-1.23553c0.27673-0.43597,0.36926-1.06964,0.32642-1.46936l-0.00848-0.14966
		c-0.00269-0.05707-0.01282-0.11353-0.02155-0.1701c0.11914,0.0069,0.26007,0.00739,0.47839-0.01874
		c0.78351-0.11426,1.41779-0.87708,1.41125-1.67468l0.05853-1.43225c0.01465-0.19672,0.01715-0.59344-0.05432-0.901
		C51.26398,43.66133,51.14167,43.3456,50.96521,43.06227z M46.13984,22.86537c0.07159,1.37665-0.383,2.81195-1.33472,3.92438
		c-0.93188,1.13055-2.34222,1.89795-3.92352,2.11768c0.75171,0.10913,1.5351,0.04126,2.29053-0.17377
		c-0.34399,2.3056-0.39722,4.66492-0.15436,7.01416c0.20782,1.98108,0.64984,3.94702,1.29944,5.85083l-2.16144-0.01984
		l-1.2785-0.01459l-0.14294,0.00153l-0.16907-0.00153l-3.12341,0.03009c0.29071-0.85242,0.53815-1.71619,0.74078-2.59003
		c0.4046-1.03546,0.71289-2.10736,0.89526-3.20093c0.20477-1.22382,0.27185-2.46796,0.19995-3.7038
		c-0.07648-1.13104-0.25635-2.25574-0.63275-3.35224c0.73883,0.20221,1.50262,0.26575,2.23651,0.1601
		c-1.4494-0.19989-2.7381-0.87512-3.66608-1.8526c-0.41931-0.54657-0.75214-1.1203-0.98358-1.7215
		c-0.18585-0.4682-0.29077-0.94836-0.35181-1.43005c0.09192-0.01538,0.18384-0.02643,0.27576-0.04236
		c-0.09631-0.01666-0.1925-0.02832-0.28882-0.04437c-0.07294-0.65082-0.05237-1.30426,0.06458-1.93927
		c0.14496-0.69226,0.41766-1.35626,0.7901-1.97534c0.99249-1.28198,2.53076-2.12054,4.1535-2.07227
		C43.5564,17.74708,46.03888,20.07033,46.13984,22.86537z M19.01295,49.67653l-7.8606-0.16498l-3.91467-0.07196
		c-1.11383-0.03705-2.18005-0.56891-2.88391-1.41083c-0.35278-0.41852-0.61829-0.90802-0.76831-1.42938
		c-0.15808-0.55035-0.16516-0.99945-0.14453-1.70709c0.14888-16.15821,0.09753-10.58522,0.10864-11.79083L3.6048,17.38026
		C3.60452,17.27994,3.57478,6.89455,3.57667,7.55452C3.5741,7.00581,3.66572,6.50368,3.87067,6.01857
		c0.40448-0.96198,1.23334-1.73346,2.21527-2.08783C6.33063,3.83937,6.58686,3.7801,6.84638,3.74287
		c0.25708-0.0343,0.51007-0.04181,0.86322-0.04315c0.10798-0.00097,5.99968-0.05398,5.89545-0.05304l7.8606-0.09576l7.86053-0.12494
		c0.25183-0.00521,6.22493-0.1287,5.89544-0.12189l0.97736-0.01788c0.29279,0.00018,0.58472,0.02509,0.87366,0.07721
		c1.15503,0.21301,2.21967,0.94403,2.85028,1.97369c0.31708,0.51245,0.52728,1.09509,0.60828,1.70093
		c0.06476,0.58862,0.05029,1.29169,0.07935,1.93195c0.05774,2.28754,0.14087,4.57507,0.23132,6.86267
		c-1.82935,0.02039-3.64838,0.78479-4.90662,2.10058c-0.26135,0.27417-0.49335,0.57452-0.70575,0.8877
		c-0.6178,0.76605-1.06311,1.68518-1.25854,2.66492c-0.13544,0.67352-0.14795,1.36804-0.05713,2.04572
		c-1.65515-0.21014-3.31042-0.3501-4.96564-0.45105c-2.40259-0.159-4.80518-0.20154-7.20776-0.21906
		c-2.40259,0.01996-4.80511,0.0625-7.2077,0.22205c-2.40259,0.14709-4.80518,0.36359-7.20776,0.7774
		c2.40259,0.41376,4.80518,0.63025,7.20776,0.77734c2.40259,0.15955,4.80511,0.20209,7.2077,0.22205
		c2.40259-0.01746,4.80518-0.06006,7.20776-0.21906c1.69568-0.10339,3.39136-0.2464,5.08697-0.46545
		c0.16455,0.67706,0.43536,1.32367,0.82025,1.89301c0.46405,0.71869,1.09564,1.30768,1.80518,1.72534
		c0.55585,0.40332,1.16956,0.71313,1.80951,0.90918c-0.33533,1.12262-0.54907,2.2179-0.76196,3.30121l-0.60272,3.47162
		l-0.50024,3.09741c-0.33221,1.03528-0.71478,2.04895-1.14557,3.03992l-0.62317,0.00598
		c-1.48114,0.03809-1.56574,0.03188-1.87854,0.05884c-0.16876,0.02423-0.33667,0.05322-0.49969,0.10382
		c-0.02509,0.00739-0.04797,0.02039-0.07281,0.02844c-0.96356,0.22174-1.8634,0.99561-2.11621,2.0152
		c-0.09467,0.30713-0.11652,0.72321-0.10529,0.95874l0.03986,0.69495c0.02026,0.23169,0.03638,0.46332,0.06714,0.69501
		l0.02148,0.18622c0.00934,0.1051,0.02411,0.20929,0.05292,0.31097c0.20197,0.73819,0.86939,1.18589,1.33752,1.31726
		c0.17816,0.05609,0.42401,0.06744,0.55523,0.05786l0.09052-0.00507c-0.03497,0.11823-0.05804,0.22833-0.07629,0.26489
		c-0.01715,0.06287-0.03607,0.10925-0.05176,0.18573c-0.04337,0.2986-0.03712,0.51998,0.02698,0.81299
		c0.06561,0.28577,0.20764,0.54791,0.38177,0.78656C28.07715,49.9239,23.54499,49.81905,19.01295,49.67653z M47.97834,48.19289
		l-0.00513,0.01697l-0.0069,0.12183c-0.01227,0.53198-0.30493,0.7829-0.6463,0.91101
		c-0.08405,0.02838-0.17212,0.03851-0.2605,0.03577l-0.50031-0.01538l-1.08606-0.03705
		c-1.44812-0.04492-2.89624-0.04065-4.34436-0.06342l-4.34442,0.05896l-2.10986,0.07056
		c-0.02142,0.00024-0.04303-0.00854-0.06464-0.01007c-0.16504-0.11865-0.28198-0.23706-0.39026-0.34674
		c-0.06879-0.06958-0.13049-0.14532-0.19763-0.2309l-0.10077-0.14398c-0.02826-0.04193-0.06714-0.11505-0.10175-0.25385
		c-0.02112-0.09161-0.04272-0.10828-0.06512-0.11621c-0.00043-0.00189-0.00079-0.00281-0.00122-0.00769
		c-0.00275-0.01404-0.00067-0.02826,0.00342-0.0434c0.00812-0.03046,0.02826-0.06238,0.0567-0.08789
		c0.01428-0.01349,0.03168-0.02338,0.05304-0.03003c0.03351-0.00891,0.16522-0.01343,0.24298-0.02039l2.17218-0.1601
		c0.66742-0.05865,1.33484-0.12012,2.00226-0.18787c0.8642-0.06989,1.72833-0.15314,2.59253-0.2486
		c1.36462,0.18512,2.72931,0.31494,4.09393,0.43402l2.17218,0.15961c0.31525,0.0274,0.8775,0.04517,0.79425,0.0838
		c0.02368,0.02008,0.03912,0.04968,0.04358,0.07495C47.98151,48.17006,47.98035,48.18184,47.97834,48.19289z M49.64618,46.7104
		c-0.01703,0.02722-0.37109,0.03375-0.57971,0.04913l-0.61707,0.03497c-0.29614-0.1167-0.65442-0.09778-0.76398-0.08197
		l-0.54309,0.03802l-2.17218,0.15961c-1.36462,0.11908-2.72931,0.2489-4.09393,0.43396
		c-0.86316-0.09534-1.72626-0.17847-2.58942-0.24829c-0.66846-0.06787-1.33691-0.12939-2.00537-0.18817l-2.17218-0.16003
		c-0.10315-0.00525-0.15265-0.01526-0.29993-0.0166c-0.08966-0.00012-0.17828,0.02814-0.26788,0.04504
		c-0.10053-0.00573-1.40393-0.08001-1.30341-0.07428c-0.10699-0.00891-0.10168-0.01654-0.15204-0.03296
		c-0.03143-0.01453-0.04651-0.04639-0.07202-0.06903c-0.02026-0.04865-0.05115-0.09955-0.047-0.14252
		c0.00171-0.03339,0.01074-0.06262,0.02344-0.08722l0.01874-0.03442l0.0199-0.16119
		c0.03082-0.23169,0.04694-0.46332,0.06714-0.69501l0.03986-0.69495c0.00958-0.22668,0.01471-0.27869,0.05743-0.4162
		c0.10059-0.32513,0.30737-0.62384,0.63428-0.82367c0.03583-0.0119,0.06799-0.03522,0.10455-0.04376
		c0.06622-0.01782,0.13495-0.0224,0.2027-0.03076l0.26917,0.00256l1.43225,0.03516l5.72882,0.05518l0.16907-0.00153l0.14294,0.00153
		l1.27094-0.01453l4.14587-0.03796c0.10284-0.00254,2.27198-0.0561,2.14832-0.05304
		c0.18579-0.00323,0.29102,0.00586,0.43549,0.04279c0.26849,0.07245,0.5108,0.24866,0.6825,0.47925
		c0.08899,0.11389,0.15381,0.24585,0.19702,0.38556c0.04382,0.15674,0.06079,0.24127,0.06769,0.52118l0.05853,1.43225
		C49.90857,46.48817,49.81159,46.63948,49.64618,46.7104z"/>
</g>
</svg>
