<?xml version="1.0" encoding="utf-8"?>
<!-- Generator: Adobe Illustrator 22.0.1, SVG Export Plug-In . SVG Version: 6.00 Build 0)  -->
<svg version="1.1" id="Layer_1" xmlns="http://www.w3.org/2000/svg" xmlns:xlink="http://www.w3.org/1999/xlink" x="0px" y="0px"
	 viewBox="0 0 40 40" style="enable-background:new 0 0 40 40;" xml:space="preserve">
<style type="text/css">
	.st0{fill:none;stroke:#000000;stroke-linecap:round;stroke-linejoin:round;stroke-miterlimit:10;}
	.st1{fill:none;stroke:#000000;stroke-linecap:round;stroke-linejoin:round;}
	.st2{stroke:#000000;stroke-width:0.25;stroke-miterlimit:10;}
</style>
<g id="Warning_Messages">
	<g>
		<path class="st0" d="M26.4212418,14.5232954l-10.0384731-0.0647278c-1.6613426,0-3.1608667,0.7227926-4.2288733,1.9202547
			c-1.0572176,1.1435204-1.7152824,2.7293491-1.7584343,4.4877834c-0.0755157,3.3550491,2.3301954,6.170702,5.2860909,6.6777344
			c0.3452139,0.0539398,0.5393972,0.4315186,0.4207296,0.7875195l-0.8198833,2.5028038l4.0346909-2.9666843
			c0.2157574-0.1618195,0.4854565-0.2481232,0.7659435-0.2481232h5.8362751c1.6505547,0,3.1500797-0.7335796,4.2288742-1.9310417
			c1.0572166-1.1543083,1.7044945-2.7509251,1.7476463-4.5201473c0.0065536-0.4259758-0.0267048-0.8439903-0.0949364-1.2516251"/>
		<line class="st0" x1="17.2343731" y1="23.3597679" x2="26.0724659" y2="23.3597679"/>
		<line class="st0" x1="18.3736877" y1="19.2946815" x2="24.9328842" y2="19.2946815"/>
		<path class="st0" d="M14.1544065,4h5.9399996c0.8500004,0,1.5500011,0.6900001,1.5500011,1.54v6.4399996"/>
		<path class="st0" d="M21.6444073,30.1399994v4.3100014C21.6444073,35.2999992,20.9444065,36,20.0944061,36h-13.25
			c-0.8499999,0-1.54-0.7000008-1.54-1.5499992V5.54c0-0.8499999,0.6900001-1.54,1.54-1.54h3.9699998c0.5600004,0,1,0.4400001,1,1
			v0.0500002c0,0.29,0.2300005,0.52,0.5200005,0.52h4.5199995"/>
		<path class="st0" d="M28.1365261,12.0420694c0.6796398-0.4962454,1.5210991-0.7767315,2.4164982-0.7767315
			c2.2870445,0,4.1425705,1.8447371,4.1425705,4.1317806c0,0.7767324-0.2157593,1.4995241-0.593338,2.1252241
			c0.010788,0.010788,0,0.010788,0,0.010788c-0.7227936,1.1974621-2.0389214,2.0065575-3.5492325,2.0065575
			c-2.2870445,0-4.1317825-1.855526-4.1317825-4.1425695c0-0.1510305,0.010788-0.2912741,0.0215759-0.4315176"/>
		<g>
			<path d="M30.5638599,18.0704689c-0.1748047,0-0.3144531-0.0537109-0.4189453-0.1611328
				c-0.1054688-0.1074219-0.1572266-0.2460938-0.1572266-0.4150391c0-0.1640625,0.0517578-0.2988281,0.1572266-0.4033203
				c0.1044922-0.1054688,0.2441406-0.1582031,0.4189453-0.1582031c0.1796875,0,0.3193359,0.0527344,0.4189453,0.1582031
				c0.0996094,0.1044922,0.1494141,0.2392578,0.1494141,0.4033203c0,0.1689453-0.0498047,0.3076172-0.1494141,0.4150391
				S30.7435474,18.0704689,30.5638599,18.0704689z M30.5638599,16.4718361c-0.0976563,0-0.1728516-0.0302734-0.2265625-0.0917969
				s-0.0859375-0.1484375-0.0966797-0.2617188L30.010149,13.181797c-0.015625-0.1894531,0.0253906-0.3417969,0.1230469-0.4570313
				s0.2412109-0.1728516,0.4306641-0.1728516c0.1845703,0,0.3242188,0.0576172,0.4189453,0.1728516
				s0.1347656,0.2675781,0.1191406,0.4570313l-0.2304688,2.9365234c-0.0058594,0.1132813-0.0351563,0.2001953-0.0888672,0.2617188
				S30.6556568,16.4718361,30.5638599,16.4718361z"/>
		</g>
	</g>
</g>
</svg>
